<?xml version="1.0" standalone="no"?>
<!DOCTYPE svg PUBLIC "-//W3C//DTD SVG 20010904//EN"
 "http://www.w3.org/TR/2001/REC-SVG-20010904/DTD/svg10.dtd">
<svg version="1.0" xmlns="http://www.w3.org/2000/svg"
 width="1024.000000pt" height="1024.000000pt" viewBox="0 0 1024.000000 1024.000000"
 preserveAspectRatio="xMidYMid meet">
<metadata>
Created by potrace 1.14, written by Peter Selinger 2001-2017
</metadata>
<g transform="translate(0.000000,1024.000000) scale(0.100000,-0.100000)"
fill="#000000" stroke="none">
<path d="M5096 9079 c-3 -17 -3 -35 0 -41 9 -15 -7 -239 -17 -236 -4 2 -42 45
-83 96 -117 147 -192 202 -278 202 -98 0 -104 -62 -10 -121 44 -28 92 -39 92
-20 0 4 -18 21 -40 36 -43 30 -48 45 -8 24 36 -19 127 -109 173 -171 62 -83
147 -289 143 -346 -5 -74 -34 -87 -337 -142 -370 -69 -668 -235 -976 -544
-182 -183 -349 -405 -445 -589 -14 -26 -58 -89 -98 -140 -40 -51 -93 -131
-117 -179 -80 -153 -90 -118 -19 61 165 412 368 733 636 1002 219 222 430 357
688 443 161 54 486 113 566 104 42 -5 42 -1 8 117 -44 154 -94 225 -149 211
-31 -8 -32 -28 -3 -68 22 -32 67 -134 68 -155 0 -7 -29 -14 -77 -18 -199 -17
-452 -85 -631 -170 -495 -234 -953 -797 -1199 -1470 -71 -196 -65 -187 -134
-209 -171 -54 -211 -151 -211 -511 0 -320 50 -513 188 -728 64 -98 111 -145
255 -253 71 -53 129 -102 129 -110 0 -8 -41 -58 -91 -111 -239 -257 -405 -523
-547 -878 -148 -372 -216 -648 -217 -885 0 -114 2 -130 26 -181 34 -73 75
-102 150 -107 134 -10 244 96 539 515 36 51 68 93 73 93 4 0 7 -37 7 -83 0
-99 25 -374 46 -507 52 -333 156 -594 323 -815 50 -65 91 -124 91 -130 0 -6
-30 -22 -67 -35 -95 -32 -261 -111 -325 -153 -106 -71 -169 -147 -201 -241
-23 -67 -21 -83 9 -128 35 -49 141 -103 249 -125 68 -14 95 -14 180 -5 55 7
111 14 125 17 19 5 34 -3 65 -30 142 -128 259 -153 436 -91 l96 34 17 -29 c42
-71 121 -111 291 -149 199 -44 666 -68 970 -51 365 21 607 78 712 168 22 19
35 23 58 18 16 -3 65 -9 107 -12 71 -5 83 -3 140 25 35 16 83 50 109 76 l45
46 79 -16 c149 -31 325 -6 422 59 68 46 96 91 90 144 -11 104 -114 236 -254
327 -81 52 -132 76 -247 115 -105 36 -110 46 -59 113 197 258 304 523 359 888
8 58 18 208 21 338 5 187 8 230 19 222 7 -6 43 -57 81 -113 173 -258 316 -428
397 -466 128 -62 265 12 297 161 22 103 -11 295 -87 504 -159 440 -408 848
-728 1194 -125 135 -124 133 -48 190 116 87 286 271 348 375 21 36 31 44 66
49 109 18 192 193 234 492 22 161 15 509 -12 598 -31 105 -88 147 -249 186
-36 8 -45 18 -88 87 -26 43 -65 107 -87 141 -21 35 -53 101 -70 145 -70 183
-222 447 -377 656 -111 148 -364 402 -493 493 -103 73 -281 169 -400 216 -90
36 -261 79 -348 88 -34 4 -65 11 -68 16 -10 15 45 114 91 166 25 28 67 64 95
82 27 18 50 36 50 41 0 23 -51 33 -108 21 -118 -25 -212 -89 -281 -193 -58
-87 -51 -59 11 41 63 103 155 197 237 241 33 19 61 39 61 45 0 32 -116 26
-184 -8 -21 -11 -60 -40 -86 -64 -46 -43 -48 -44 -53 -22 -9 35 -63 115 -89
131 -13 8 -33 18 -44 21 -18 5 -22 1 -28 -25z m563 -635 c175 -51 381 -158
555 -289 214 -161 484 -485 637 -767 79 -146 45 -120 -61 47 -222 348 -450
590 -718 758 -116 73 -347 191 -475 242 -51 20 -94 39 -97 42 -8 9 67 -7 159
-33z m-960 -182 c12 -22 -3 -42 -31 -42 -21 0 -33 22 -24 45 8 21 43 19 55 -3z
m846 -567 c0 -22 -31 -33 -47 -17 -17 17 -1 44 24 40 15 -2 23 -10 23 -23z
m-1410 -434 c176 -36 335 -123 470 -256 40 -40 90 -98 110 -129 19 -31 42 -56
49 -56 7 0 39 9 72 20 141 50 287 67 430 51 86 -10 239 -44 295 -66 11 -4 32
15 73 69 108 141 243 249 391 314 139 60 175 67 355 67 153 -1 171 -3 250 -29
177 -59 302 -138 427 -269 118 -124 195 -252 231 -383 56 -203 29 -449 -69
-623 -129 -227 -355 -409 -591 -473 -71 -19 -107 -23 -243 -22 -147 0 -167 3
-245 28 -224 73 -424 236 -527 430 -96 181 -125 289 -124 471 l0 130 -30 17
c-115 66 -501 58 -577 -12 -16 -15 -20 -38 -25 -148 -8 -156 -26 -247 -68
-348 -112 -269 -355 -463 -659 -526 -119 -25 -303 -20 -422 11 -331 86 -586
351 -664 690 -20 87 -20 292 1 400 59 307 354 575 711 645 102 21 272 19 379
-3z m-1138 -603 c-21 -171 -29 -404 -19 -538 6 -80 9 -146 8 -148 -3 -3 -140
-20 -143 -18 -1 1 -7 64 -12 141 -19 248 -9 512 21 541 14 14 123 63 142 64 4
0 6 -19 3 -42z m4471 -42 c35 -12 38 -17 56 -82 27 -96 28 -415 3 -551 -22
-116 -61 -252 -92 -320 -25 -56 -50 -73 -35 -25 48 160 60 212 60 257 l0 53
-52 -1 -53 0 5 64 c9 117 4 543 -7 588 l-11 43 44 -7 c25 -3 62 -12 82 -19z
m-4673 -28 c-13 -43 -18 -480 -6 -588 24 -225 24 -227 8 -207 -19 23 -54 168
-67 277 -21 179 -6 453 29 519 16 29 46 29 36 -1z m2469 -414 c54 -44 60 -52
57 -84 -2 -13 -1 -13 8 0 8 12 11 11 16 -5 19 -56 29 -77 44 -88 23 -16 40
-43 20 -32 -16 10 1 -14 34 -48 11 -11 17 -27 14 -39 -3 -11 -1 -29 6 -39 13
-21 8 -28 -23 -34 -12 -2 -25 -7 -29 -11 -6 -7 39 0 74 11 11 4 -16 -12 -60
-35 -88 -47 -156 -93 -198 -137 -27 -29 -49 -110 -64 -238 -3 -22 -10 -46 -15
-52 -8 -10 -6 -13 8 -13 24 0 174 90 368 222 94 64 169 108 184 108 14 0 55
-25 104 -64 93 -75 169 -117 271 -152 289 -99 625 -58 867 105 24 17 46 28 49
26 8 -9 -60 -133 -109 -199 -107 -140 -241 -248 -368 -296 -103 -39 -212 -62
-269 -58 -29 3 -53 3 -53 2 0 -2 13 -10 29 -19 69 -35 235 -215 199 -215 -7 0
-92 13 -188 29 -254 43 -461 60 -849 71 -466 13 -827 -1 -1185 -46 -65 -8
-121 -13 -123 -10 -7 7 47 82 101 142 l46 51 -113 5 c-124 6 -227 33 -351 94
-183 91 -343 269 -410 457 -5 16 1 15 41 -9 217 -129 466 -178 719 -143 159
22 333 93 458 188 l67 51 126 -93 c69 -50 142 -104 162 -118 54 -39 192 -112
198 -105 4 3 2 6 -4 6 -6 0 -14 17 -17 38 -16 92 -15 91 -104 157 -48 35 -122
81 -164 102 -43 20 -78 40 -78 44 0 16 41 15 87 -1 61 -21 117 -57 183 -115
29 -26 54 -45 56 -43 2 2 1 21 -3 42 -4 28 -19 51 -57 87 -48 47 -191 129
-223 129 -19 0 -23 -8 81 150 151 230 192 270 277 270 41 0 54 -6 103 -46z
m124 -159 c-3 -3 -9 2 -12 12 -6 14 -5 15 5 6 7 -7 10 -15 7 -18z m105 -166
c-12 -12 -33 -4 -33 13 0 6 7 5 17 -3 15 -12 16 -12 9 6 -6 16 -5 18 5 8 10
-10 10 -16 2 -24z m70 -136 c-7 -2 -19 -2 -25 0 -7 3 -2 5 12 5 14 0 19 -2 13
-5z m-2279 -675 c-15 -30 -41 -69 -135 -203 -151 -214 -305 -494 -421 -765
-165 -384 -259 -792 -213 -927 6 -19 4 -23 -12 -23 -11 0 -28 9 -39 21 -16 18
-19 37 -19 133 1 394 248 1051 552 1469 118 162 285 348 300 334 2 -3 -3 -20
-13 -39z m3647 -235 c158 -163 322 -384 446 -598 64 -112 153 -287 153 -303 0
-4 -20 27 -43 69 -126 219 -336 517 -518 734 -125 149 -158 195 -141 195 5 0
51 -44 103 -97z m-1096 3 c269 -28 625 -91 625 -112 0 -25 -45 -44 -199 -80
-182 -42 -214 -59 -96 -50 186 14 355 69 355 116 0 24 32 27 49 6 14 -16 18
-67 7 -84 -19 -31 -206 -79 -439 -111 -276 -38 -419 -46 -887 -46 -395 0 -486
3 -691 23 -389 37 -602 83 -646 141 -18 23 -16 66 5 83 33 29 67 41 137 49 38
4 124 17 190 28 123 20 277 36 490 51 197 14 916 4 1100 -14z m-1799 -321 c79
-19 366 -58 604 -82 289 -28 989 -26 1270 5 245 27 404 49 485 67 32 8 61 12
64 10 5 -6 -26 -319 -49 -480 -19 -133 -43 -325 -105 -850 -59 -499 -74 -629
-105 -910 -39 -351 -77 -657 -86 -678 -3 -9 -12 -17 -20 -17 -8 0 -14 -4 -14
-9 0 -5 -26 -19 -57 -31 -32 -13 -71 -29 -88 -36 -16 -6 -63 -20 -102 -29 -81
-19 -96 -28 -30 -19 31 4 38 3 27 -5 -8 -6 -26 -11 -39 -11 -18 0 -22 -3 -14
-11 8 -8 17 -8 33 1 16 8 25 9 31 1 5 -6 6 -9 3 -6 -4 3 -12 1 -18 -4 -19 -15
-69 -23 -61 -10 4 6 -3 4 -16 -4 -14 -9 -95 -25 -199 -39 -248 -32 -639 -32
-847 0 -223 35 -427 104 -454 154 -22 41 -89 639 -149 1338 -29 336 -60 640
-150 1466 -26 232 -26 226 3 214 12 -5 50 -16 83 -25z m2624 -360 c0 -21 -28
-31 -43 -16 -9 9 -8 14 3 21 22 14 40 12 40 -5z m-3351 -507 c19 -60 32 -181
41 -403 10 -232 20 -330 46 -458 9 -43 13 -81 11 -84 -8 -8 -57 162 -83 287
-20 92 -26 167 -34 375 -12 325 -12 315 -1 315 5 0 14 -15 20 -32z m449 -288
c26 -25 27 -37 5 -62 -20 -22 -56 -23 -77 -2 -21 20 -20 43 1 66 21 24 44 23
71 -2z m16 -1397 c123 -54 251 -151 260 -199 3 -10 12 -36 20 -57 17 -39 44
-154 52 -224 4 -36 2 -43 -23 -61 -78 -55 -198 -65 -280 -24 -43 22 -113 93
-137 140 -13 25 -23 31 -58 34 -25 3 -66 -3 -98 -13 -145 -46 -229 -45 -322 2
-87 44 -99 77 -50 145 85 117 287 232 472 269 91 18 95 18 164 -12z m3008 -54
c200 -101 350 -249 319 -315 -30 -67 -218 -125 -317 -98 -32 8 -40 32 -79 218
-10 44 -40 125 -70 187 l-31 66 58 -13 c32 -8 86 -28 120 -45z m-902 -449 c0
-5 -4 -10 -10 -10 -5 0 -10 5 -10 10 0 6 5 10 10 10 6 0 10 -4 10 -10z m64 1
c4 -5 -3 -7 -14 -4 -23 6 -26 13 -6 13 8 0 17 -4 20 -9z m270 -7 c3 -8 2 -12
-4 -9 -6 3 -10 10 -10 16 0 14 7 11 14 -7z m-304 -14 c-34 -11 -60 -11 -35 0
11 5 29 8 40 8 16 0 15 -2 -5 -8z m194 -16 c25 -64 -18 -112 -131 -148 -213
-67 -422 -91 -793 -90 -380 1 -638 33 -804 100 -92 37 -126 66 -126 110 0 19
3 34 8 34 4 0 40 -14 81 -30 94 -39 233 -74 381 -97 181 -28 693 -25 887 5
174 27 355 72 425 105 65 31 64 31 72 11z"/>
<path d="M3777 7165 c-313 -59 -564 -285 -638 -573 -36 -143 -19 -369 40 -504
90 -210 304 -393 538 -460 105 -31 332 -33 438 -4 239 63 449 236 542 444 34
76 63 220 63 313 0 231 -107 463 -279 606 -80 66 -218 135 -326 163 -106 28
-275 34 -378 15z m274 -109 c78 -37 107 -70 111 -125 3 -42 5 -44 46 -56 90
-27 180 -126 226 -248 44 -118 40 -291 -10 -409 -33 -79 -44 -94 -56 -76 -6 9
-7 6 -3 -8 4 -16 -9 -34 -61 -82 -152 -140 -380 -160 -547 -48 -18 12 -24 22
-17 26 8 5 6 9 -5 13 -9 4 -13 3 -10 -3 11 -17 -11 -11 -28 8 -13 15 -14 21
-4 32 10 12 9 12 -4 2 -14 -11 -20 -8 -38 14 -46 58 -91 168 -104 253 l-13 84
-91 -107 c-50 -59 -109 -136 -130 -171 -21 -36 -41 -65 -45 -65 -8 0 -43 108
-57 178 -37 181 22 388 156 547 185 220 498 330 684 241z"/>
<path d="M3927 6796 c-105 -46 -168 -88 -226 -152 -99 -108 -128 -213 -96
-347 49 -206 212 -327 426 -315 104 6 170 34 244 100 99 90 145 204 145 358 0
207 -94 348 -255 384 l-30 7 25 -17 c34 -24 40 -34 40 -70 0 -40 -31 -80 -75
-94 -82 -27 -166 74 -124 152 6 11 9 21 7 23 -2 2 -38 -11 -81 -29z m-112
-226 c7 -12 -70 -97 -96 -105 -24 -8 -49 11 -49 35 0 43 124 104 145 70z m533
-173 c4 -32 -37 -77 -69 -77 -29 0 -59 28 -59 55 0 63 121 83 128 22z m-344
-190 c13 -21 -15 -53 -38 -44 -26 10 -31 38 -11 54 22 16 35 13 49 -10z"/>
<path d="M6205 7155 c-294 -64 -535 -294 -607 -578 -18 -70 -20 -101 -15 -207
8 -173 52 -311 139 -437 116 -169 314 -307 502 -348 104 -23 288 -16 396 15
290 83 516 321 574 602 91 438 -190 860 -634 953 -87 18 -272 18 -355 0z m204
-236 c161 -27 284 -143 332 -314 18 -65 18 -254 0 -320 -18 -66 -71 -161 -81
-145 -5 8 -9 7 -13 -5 -4 -9 -3 -13 3 -10 6 3 10 2 10 -4 0 -5 -8 -15 -17 -20
-10 -6 -14 -11 -10 -11 13 0 -90 -87 -135 -114 -179 -103 -398 -84 -546 49
-171 154 -219 438 -111 652 54 107 160 200 268 234 66 21 202 25 300 8z"/>
<path d="M6194 6862 c-112 -33 -204 -102 -278 -205 -106 -149 -113 -328 -21
-493 19 -33 41 -67 50 -74 8 -7 12 -17 8 -23 -3 -5 -2 -7 4 -4 5 3 18 -4 28
-16 18 -21 19 -35 2 -29 -5 1 -6 -2 -2 -8 5 -8 11 -8 20 0 9 7 28 3 69 -16
123 -56 271 -50 394 16 65 35 101 65 154 131 45 55 64 97 83 190 29 137 14
261 -44 363 -17 31 -29 62 -25 69 4 7 4 9 -1 5 -4 -4 -26 9 -48 28 -65 59
-118 78 -232 81 -74 2 -116 -2 -161 -15z m215 -26 c64 -34 66 -122 3 -179 -71
-64 -192 -21 -192 70 0 96 101 154 189 109z m229 -418 c17 -17 15 -55 -4 -66
-43 -24 -88 36 -49 65 23 16 37 17 53 1z m-468 -138 c23 -23 24 -33 10 -61
-12 -22 -68 -27 -88 -7 -17 17 -15 48 5 70 21 24 48 23 73 -2z m190 -195 c0
-8 -9 -15 -20 -15 -11 0 -20 7 -20 15 0 8 9 15 20 15 11 0 20 -7 20 -15z"/>
<path d="M5925 6071 c-3 -5 -2 -12 3 -15 5 -3 9 1 9 9 0 17 -3 19 -12 6z"/>
<path d="M2965 5990 c-3 -5 -1 -10 4 -10 6 0 11 5 11 10 0 6 -2 10 -4 10 -3 0
-8 -4 -11 -10z"/>
<path d="M2888 5973 c6 -2 18 -2 25 0 6 3 1 5 -13 5 -14 0 -19 -2 -12 -5z"/>
<path d="M4740 4715 c-184 -24 -338 -55 -363 -75 l-22 -18 26 -10 c120 -46
836 -76 1284 -53 264 14 367 26 410 49 l30 17 -62 3 c-52 2 -65 7 -81 27 -17
22 -33 26 -143 39 -122 14 -179 12 -179 -5 0 -5 5 -9 11 -9 23 0 -4 -20 -29
-21 -24 0 -25 -1 -7 -9 29 -13 14 -12 -62 4 -37 8 -97 17 -133 21 -36 4 -108
16 -160 27 -128 26 -367 32 -520 13z"/>
<path d="M3957 4693 c-15 -14 -6 -33 22 -48 53 -27 178 -64 256 -74 123 -17
118 -12 -20 25 -129 34 -235 77 -235 95 0 10 -14 12 -23 2z"/>
<path d="M5940 4328 c-61 -64 -100 -172 -102 -282 -1 -61 2 -70 31 -106 l32
-40 -35 -147 c-72 -310 -85 -501 -40 -614 32 -81 29 -138 -11 -179 -15 -16
-38 -31 -51 -34 -35 -9 -90 18 -109 53 -32 63 -29 105 25 350 50 225 52 239
47 345 -3 61 -13 140 -21 176 -13 51 -15 94 -10 201 8 169 -1 210 -49 208 -18
-1 -24 -3 -15 -6 29 -7 38 -61 38 -224 0 -112 5 -178 16 -226 29 -119 22 -231
-29 -458 -25 -110 -48 -221 -52 -246 -14 -93 38 -188 113 -209 70 -19 151 53
160 139 3 33 -3 65 -22 115 -21 56 -26 85 -26 165 0 109 36 347 75 489 27 101
26 108 -21 165 -18 21 -24 41 -24 75 0 90 44 212 99 274 40 46 23 60 -19 16z"/>
<path d="M5328 3931 c3 -33 -1 -45 -22 -66 -30 -30 -59 -27 -90 8 l-19 22 8
-25 c10 -32 22 -40 65 -40 19 0 40 4 46 8 28 18 42 78 28 116 -11 29 -20 17
-16 -23z"/>
<path d="M4791 3600 c-1 -39 -28 -70 -60 -70 -31 0 -46 13 -54 45 -4 16 -5 15
-6 -5 -2 -40 25 -70 63 -70 51 0 86 57 66 105 -8 18 -9 18 -9 -5z"/>
<path d="M5760 2745 c0 -37 -20 -80 -44 -97 -5 -3 -22 0 -38 8 -35 18 -37 1
-3 -22 36 -24 73 -11 91 31 16 40 18 83 4 105 -7 11 -10 4 -10 -25z"/>
<path d="M5605 1395 c-67 -17 -36 -18 40 -1 33 8 49 14 35 14 -14 0 -47 -6
-75 -13z"/>
<path d="M5590 1360 c-18 -12 -2 -12 25 0 13 6 15 9 5 9 -8 0 -22 -4 -30 -9z"/>
<path d="M5548 1353 c7 -3 16 -2 19 1 4 3 -2 6 -13 5 -11 0 -14 -3 -6 -6z"/>
<path d="M5448 1343 c7 -3 16 -2 19 1 4 3 -2 6 -13 5 -11 0 -14 -3 -6 -6z"/>
<path d="M9288 7513 c3 -18 0 -25 -16 -30 -28 -7 -37 -33 -11 -33 11 0 22 6
25 14 13 34 63 19 63 -19 0 -5 -6 -2 -14 9 -22 29 -49 13 -41 -26 9 -44 24
-60 46 -48 9 5 20 6 24 3 3 -3 6 6 6 20 0 15 -5 27 -11 27 -5 0 -7 4 -4 10 9
14 -23 70 -41 70 -8 0 -13 4 -10 9 3 5 0 11 -7 14 -10 4 -13 -2 -9 -20z m61
-97 c9 -11 8 -15 -5 -20 -23 -9 -34 -7 -34 5 0 6 7 8 16 5 14 -5 15 -4 4 9 -7
8 -8 15 -2 15 5 0 15 -6 21 -14z"/>
<path d="M9265 7431 c-3 -5 -2 -12 3 -15 5 -3 9 1 9 9 0 17 -3 19 -12 6z"/>
<path d="M130 4766 c0 -2 7 -6 15 -10 8 -3 15 -1 15 4 0 6 -7 10 -15 10 -8 0
-15 -2 -15 -4z"/>
<path d="M90 4750 c19 -13 30 -13 30 0 0 6 -10 10 -22 10 -19 0 -20 -2 -8 -10z"/>
<path d="M275 4750 c-3 -5 -2 -10 4 -10 5 0 13 5 16 10 3 6 2 10 -4 10 -5 0
-13 -4 -16 -10z"/>
<path d="M50 4709 c0 -13 -25 -39 -39 -39 -13 0 -13 -208 1 -216 6 -4 5 -10
-3 -15 -11 -6 -11 -11 -2 -20 16 -16 24 -8 26 22 0 13 4 26 7 29 3 3 14 23 24
45 11 22 51 70 89 108 38 37 65 67 58 67 -6 0 -11 -3 -11 -8 0 -4 -10 -13 -21
-21 -20 -12 -21 -11 -16 8 6 25 5 26 -41 4 -25 -12 -37 -14 -39 -6 -3 7 -13 3
-25 -9 -15 -15 -23 -18 -26 -9 -2 7 5 19 17 27 22 16 29 44 11 44 -5 0 -10 -5
-10 -11z m105 -69 c-3 -5 -10 -10 -16 -10 -5 0 -9 5 -9 10 0 6 7 10 16 10 8 0
12 -4 9 -10z m-41 -16 c3 -8 2 -12 -4 -9 -6 3 -10 10 -10 16 0 14 7 11 14 -7z"/>
<path d="M172 4706 c7 -8 15 -12 17 -11 5 6 -10 25 -20 25 -5 0 -4 -6 3 -14z"/>
<path d="M210 4716 c0 -2 7 -6 15 -10 8 -3 15 -1 15 4 0 6 -7 10 -15 10 -8 0
-15 -2 -15 -4z"/>
<path d="M80 4700 c0 -6 7 -10 15 -10 8 0 15 2 15 4 0 2 -7 6 -15 10 -8 3 -15
1 -15 -4z"/>
<path d="M493 4543 c9 -2 23 -2 30 0 6 3 -1 5 -18 5 -16 0 -22 -2 -12 -5z"/>
<path d="M377 4533 c-15 -2 -25 -8 -22 -13 3 -4 -12 -8 -33 -8 -38 1 -85 -10
-137 -32 -16 -7 -34 -12 -38 -11 -4 0 -17 -4 -29 -10 -17 -9 -18 -13 -7 -21
11 -7 9 -8 -5 -4 -11 4 -26 0 -37 -10 -10 -9 -29 -17 -43 -18 l-26 -1 0 -183
c0 -101 4 -181 9 -178 15 9 20 -203 9 -379 -5 -93 -12 -305 -14 -469 l-5 -299
137 6 c76 4 158 7 183 7 25 0 41 4 36 8 -32 22 -142 233 -173 332 -61 189 -82
346 -84 600 -1 255 0 270 17 270 8 0 15 -7 15 -16 0 -8 4 -13 8 -10 5 3 15 -7
23 -22 19 -39 60 -82 72 -75 6 3 7 1 3 -6 -5 -7 4 -24 23 -42 17 -16 31 -24
31 -18 0 9 4 8 14 0 11 -9 15 -5 20 21 8 41 23 26 30 -29 8 -72 31 -100 133
-169 61 -40 145 -70 136 -48 -11 28 9 36 33 13 47 -44 76 -28 90 50 7 33 -23
128 -42 135 -8 3 -13 10 -9 16 10 17 -14 50 -32 43 -12 -5 -15 -2 -10 10 3 9
2 17 -4 17 -6 0 -8 4 -5 9 3 4 -7 6 -22 4 -19 -3 -23 -2 -13 5 16 12 -3 27
-21 16 -7 -5 -9 -2 -5 9 4 11 -3 18 -24 26 -16 5 -29 15 -29 22 0 6 -7 8 -16
5 -8 -3 -13 -2 -10 2 3 5 -15 18 -39 30 -25 12 -45 26 -45 31 0 6 20 9 44 8
24 -1 42 -6 39 -11 -3 -4 4 -5 16 -1 15 5 21 2 21 -9 0 -9 6 -17 13 -17 6 -1
19 -3 27 -4 8 -1 21 -3 28 -4 8 0 12 -7 9 -13 -5 -18 23 -37 53 -37 23 0 23 1
5 9 -18 8 -18 9 -2 9 15 1 18 8 15 44 -3 36 -6 42 -25 41 -12 0 -19 4 -16 9 3
5 -7 20 -23 33 -22 18 -26 26 -16 32 11 8 11 10 -2 15 -9 4 -16 2 -16 -3 0 -5
-7 -7 -15 -4 -8 4 -13 9 -11 13 3 4 -11 5 -30 3 -21 -3 -34 0 -34 7 0 7 -6 11
-12 10 -7 -1 -25 3 -41 9 -15 7 -35 11 -45 10 -9 -1 -45 2 -80 6 l-62 9 27 23
c16 13 33 24 40 24 6 0 45 16 86 35 41 19 83 35 93 36 11 0 14 3 7 6 -29 11
-10 23 27 17 35 -6 40 -4 34 11 -5 13 -9 14 -16 3 -7 -10 -11 -10 -14 -1 -3 7
-12 9 -19 7 -8 -3 -20 -2 -27 3 -9 5 -2 10 22 14 l35 6 -33 2 c-18 0 -31 5
-28 10 3 5 -8 14 -26 20 -31 11 -40 11 -91 4z m66 -10 c-7 -2 -21 -2 -30 0
-10 3 -4 5 12 5 17 0 24 -2 18 -5z m25 -20 c-10 -2 -26 -2 -35 0 -10 3 -2 5
17 5 19 0 27 -2 18 -5z m-171 -9 c-3 -3 -12 -4 -19 -1 -8 3 -5 6 6 6 11 1 17
-2 13 -5z m43 2 c0 -2 -7 -7 -16 -10 -8 -3 -12 -2 -9 4 6 10 25 14 25 6z m137
-12 c-3 -3 -12 -4 -19 -1 -8 3 -5 6 6 6 11 1 17 -2 13 -5z m-317 -45 c0 -4 -7
-6 -15 -3 -8 4 -15 10 -15 15 0 4 7 6 15 3 8 -4 15 -10 15 -15z m269 -3 c8
-10 9 -16 1 -21 -5 -3 -10 0 -10 9 0 8 -6 17 -12 19 -8 4 -9 6 -2 6 6 1 17 -5
23 -13z m51 4 c0 -5 -4 -10 -10 -10 -5 0 -10 5 -10 10 0 6 5 10 10 10 6 0 10
-4 10 -10z m-120 -54 c0 -3 -4 -8 -10 -11 -5 -3 -10 -1 -10 4 0 6 5 11 10 11
6 0 10 -2 10 -4z m67 -122 c-3 -3 -12 -4 -19 -1 -8 3 -5 6 6 6 11 1 17 -2 13
-5z m173 -118 c0 -2 -9 -6 -20 -9 -11 -3 -18 -1 -14 4 5 9 34 13 34 5z m90
-210 c0 -3 -4 -8 -10 -11 -5 -3 -10 -1 -10 4 0 6 5 11 10 11 6 0 10 -2 10 -4z"/>
<path d="M528 4513 c6 -2 18 -2 25 0 6 3 1 5 -13 5 -14 0 -19 -2 -12 -5z"/>
<path d="M9865 4485 c-44 -7 -98 -18 -120 -24 -22 -7 -64 -19 -94 -27 -41 -12
-51 -18 -40 -25 10 -8 8 -9 -9 -4 -24 7 -77 -26 -64 -40 4 -4 0 -6 -8 -4 -8 1
-27 -3 -41 -10 -22 -11 -33 -10 -72 8 -25 12 -53 21 -61 21 -8 0 -19 8 -25 18
-5 9 -13 17 -18 17 -4 0 -7 16 -6 35 2 19 0 29 -3 21 -5 -11 -8 -11 -16 0 -7
10 -8 6 -5 -14 2 -15 0 -30 -5 -33 -6 -4 -5 -10 3 -15 11 -7 10 -9 -3 -9 -9 0
-19 6 -21 13 -4 9 -8 8 -16 -3 -6 -9 -11 -10 -11 -3 0 26 -239 -15 -316 -54
-80 -40 -292 -251 -277 -276 3 -5 1 -7 -5 -3 -11 6 -52 -43 -52 -63 0 -6 -4
-11 -8 -11 -11 0 -108 -151 -105 -162 2 -4 -2 -8 -8 -8 -11 0 -10 -10 6 -55 6
-18 5 -18 -5 -2 -14 21 -26 22 -34 1 -3 -8 -2 -12 3 -9 5 3 12 1 16 -5 3 -5
-1 -10 -9 -10 -9 0 -24 -18 -34 -40 -10 -22 -20 -38 -23 -36 -3 3 -5 -13 -6
-34 -1 -22 2 -40 7 -40 5 0 6 8 3 18 -6 14 -4 15 8 5 9 -7 53 -11 120 -10 98
1 110 -1 164 -28 35 -18 74 -49 102 -82 31 -36 49 -50 57 -44 6 5 46 21 89 36
66 22 91 26 170 24 l92 -3 45 -45 c25 -26 57 -62 71 -81 21 -27 29 -32 40 -23
17 13 76 29 144 37 38 5 46 4 35 -4 -12 -9 -6 -10 25 -5 29 4 36 3 25 -4 -13
-9 -12 -11 5 -12 11 -1 26 -1 33 0 7 1 15 -5 18 -14 4 -9 13 -14 20 -11 8 3
14 1 14 -5 0 -6 6 -9 13 -6 8 3 20 -3 28 -14 9 -12 20 -17 34 -13 14 4 16 3 7
-4 -10 -7 -3 -17 29 -41 24 -17 50 -29 57 -26 10 3 12 0 8 -10 -3 -10 1 -15
13 -15 15 0 19 11 24 68 11 110 7 240 -9 347 -8 55 -17 113 -20 129 -2 16 -8
34 -13 40 -5 6 -7 30 -4 54 5 34 12 45 40 62 21 12 31 25 27 32 -4 7 -3 8 4 4
6 -4 51 19 100 51 48 32 123 74 165 92 l77 34 0 183 0 184 -147 -1 c-82 -1
-184 -7 -228 -14z m-418 -161 c-6 -6 -47 9 -47 17 0 5 11 3 25 -3 14 -6 24
-13 22 -14z m621 -33 c6 -1 12 -5 12 -9 0 -4 -39 -16 -87 -26 -99 -20 -163
-47 -242 -100 -29 -20 -57 -36 -62 -36 -4 0 -25 12 -46 26 -48 33 -56 80 -15
95 52 20 164 39 228 39 36 0 63 3 61 8 -4 5 80 7 151 3z m-461 -173 c-3 -8 -6
-5 -6 6 -1 11 2 17 5 13 3 -3 4 -12 1 -19z m0 -170 c-3 -8 -6 -5 -6 6 -1 11 2
17 5 13 3 -3 4 -12 1 -19z m-813 -54 c7 -17 -9 -54 -24 -54 -23 0 -40 14 -40
35 0 34 52 50 64 19z m-364 -238 c0 -2 -9 -6 -20 -9 -11 -3 -20 -1 -20 4 0 5
9 9 20 9 11 0 20 -2 20 -4z m1437 -128 c-3 -7 -5 -2 -5 12 0 14 2 19 5 13 2
-7 2 -19 0 -25z m-304 -105 c-7 -2 -19 -2 -25 0 -7 3 -2 5 12 5 14 0 19 -2 13
-5z m294 -180 c-3 -10 -5 -4 -5 12 0 17 2 24 5 18 2 -7 2 -21 0 -30z"/>
<path d="M9610 4180 c0 -5 5 -10 11 -10 5 0 7 5 4 10 -3 6 -8 10 -11 10 -2 0
-4 -4 -4 -10z"/>
<path d="M668 4463 c7 -3 16 -2 19 1 4 3 -2 6 -13 5 -11 0 -14 -3 -6 -6z"/>
<path d="M8770 4339 l-35 -30 38 26 c33 24 43 35 34 35 -1 0 -18 -14 -37 -31z"/>
<path d="M640 4210 c0 -5 14 -16 30 -25 39 -20 39 -5 0 17 -17 9 -30 13 -30 8z"/>
<path d="M720 4170 c-12 -8 -11 -10 8 -10 12 0 22 5 22 10 0 13 -11 13 -30 0z"/>
<path d="M720 4123 c0 -10 13 -26 29 -36 32 -18 61 -22 61 -8 0 5 -9 7 -20 4
-11 -3 -20 0 -20 6 0 11 18 15 50 12 12 -1 12 1 -2 9 -10 6 -25 7 -41 1 -20
-8 -24 -7 -23 7 0 9 -7 18 -16 20 -12 2 -18 -3 -18 -15z"/>
<path d="M585 4100 c3 -5 8 -10 11 -10 2 0 4 5 4 10 0 6 -5 10 -11 10 -5 0 -7
-4 -4 -10z"/>
<path d="M700 4076 c0 -2 7 -7 16 -10 8 -3 12 -2 9 4 -6 10 -25 14 -25 6z"/>
<path d="M8404 3895 c-9 -14 -14 -28 -11 -31 3 -3 13 8 22 25 19 37 12 41 -11
6z"/>
<path d="M10220 3493 c-10 -57 -9 -68 4 -82 15 -14 16 -7 16 67 0 45 -2 82 -4
82 -2 0 -9 -30 -16 -67z"/>
<path d="M10051 3446 c-12 -15 -62 -175 -105 -333 -20 -72 -43 -147 -51 -166
l-14 -34 91 -7 c50 -3 131 -6 180 -6 l88 0 0 217 0 216 -27 36 c-15 20 -31 38
-35 39 -5 2 -15 11 -24 19 -21 21 -91 34 -103 19z"/>
<path d="M9180 3167 c-29 -106 -66 -230 -81 -277 -16 -47 -29 -91 -29 -97 0
-20 37 -15 45 5 22 56 145 512 145 538 0 7 -6 14 -13 17 -10 4 -28 -45 -67
-186z"/>
<path d="M465 2905 c-29 -9 -134 -19 -255 -25 -113 -5 -206 -10 -207 -10 -2 0
-3 -23 -3 -51 l0 -52 143 7 c78 3 262 7 409 8 147 1 265 5 262 10 -3 4 2 8 10
8 23 0 2 50 -35 86 -30 28 -33 29 -152 31 -84 2 -138 -2 -172 -12z m174 -111
c2 -2 -70 -3 -160 -2 -103 0 -147 4 -119 8 43 7 270 1 279 -6z"/>
<path d="M9770 2860 l-45 -7 58 -1 c31 -1 57 -6 57 -12 0 -6 49 -11 123 -12
114 -2 110 -3 -58 -8 -125 -4 -152 -7 -90 -9 61 -1 84 -5 70 -11 -12 -5 44
-10 150 -11 125 -2 153 -4 105 -9 l-65 -7 83 -1 82 -2 0 50 0 50 -212 -2
c-117 0 -233 -4 -258 -8z m378 -37 c-10 -2 -26 -2 -35 0 -10 3 -2 5 17 5 19 0
27 -2 18 -5z m75 0 c-7 -2 -19 -2 -25 0 -7 3 -2 5 12 5 14 0 19 -2 13 -5z
m-240 -20 c-13 -2 -33 -2 -45 0 -13 2 -3 4 22 4 25 0 35 -2 23 -4z m130 0 c-7
-2 -19 -2 -25 0 -7 3 -2 5 12 5 14 0 19 -2 13 -5z m90 0 c-7 -2 -19 -2 -25 0
-7 3 -2 5 12 5 14 0 19 -2 13 -5z"/>
<path d="M9488 2853 c7 -3 16 -2 19 1 4 3 -2 6 -13 5 -11 0 -14 -3 -6 -6z"/>
<path d="M9570 2850 c19 -13 30 -13 30 0 0 6 -10 10 -22 10 -19 0 -20 -2 -8
-10z"/>
<path d="M9658 2853 c7 -3 16 -2 19 1 4 3 -2 6 -13 5 -11 0 -14 -3 -6 -6z"/>
<path d="M1963 1086 c-88 -42 -140 -134 -130 -231 14 -140 117 -225 258 -212
132 12 219 100 219 221 -1 131 -99 233 -235 243 -49 3 -70 0 -112 -21z m53
-34 c-27 -9 -51 -24 -54 -32 -3 -13 -2 -13 7 0 5 8 13 11 18 7 4 -4 -13 -25
-37 -46 -37 -32 -47 -36 -54 -24 -17 30 92 113 149 112 11 0 -2 -8 -29 -17z
m123 3 c-3 -2 -21 -6 -41 -9 -20 -2 -46 -9 -58 -16 -12 -6 -29 -8 -38 -4 -12
5 -5 10 26 18 47 12 119 19 111 11z m78 -51 c21 -21 21 -34 0 -34 -6 0 -7 3
-4 7 9 8 -33 54 -43 48 -4 -2 -7 2 -7 10 0 17 15 8 54 -31z m-227 -24 c0 -5
-2 -10 -4 -10 -2 0 -12 -3 -22 -7 -16 -6 -17 -5 -4 10 17 19 30 22 30 7z m132
-52 c-7 -7 -12 -8 -12 -2 0 14 12 26 19 19 2 -3 -1 -11 -7 -17z m-205 -20 c-3
-8 -6 -5 -6 6 -1 11 2 17 5 13 3 -3 4 -12 1 -19z m233 12 c0 -5 -5 -10 -11
-10 -5 0 -7 5 -4 10 3 6 8 10 11 10 2 0 4 -4 4 -10z m84 -1 c28 -13 39 -53 26
-97 -4 -17 -5 -34 -2 -38 4 -4 1 -4 -5 0 -7 4 -13 2 -13 -3 0 -6 -13 -11 -28
-11 -37 0 -73 38 -74 78 -1 41 20 66 69 81 1 1 13 -4 27 -10z m-344 -38 c-9
-33 -2 -83 11 -75 5 3 9 1 9 -5 0 -28 -20 -17 -29 16 -13 52 -11 93 5 93 9 0
10 -8 4 -29z m220 -6 c0 -12 -19 -12 -23 0 -4 9 -1 12 9 8 7 -3 14 -7 14 -8z"/>
<path d="M1916 989 c-11 -10 -17 -21 -14 -24 5 -6 48 29 48 39 0 11 -15 5 -34
-15z"/>
</g>
</svg>
